<mxfile host="Electron" modified="2023-11-16T02:10:27.289Z" agent="Mozilla/5.0 (Macintosh; Intel Mac OS X 10_15_7) AppleWebKit/537.36 (KHTML, like Gecko) draw.io/22.0.3 Chrome/114.0.5735.289 Electron/25.8.4 Safari/537.36" etag="GFY8iYuxWGjtXkFGHo0B" version="22.0.3" type="device">
  <diagram name="第 1 页" id="KSN4QiYsH1KxpoJOvO8v">
    <mxGraphModel dx="1865" dy="1196" grid="1" gridSize="10" guides="1" tooltips="1" connect="1" arrows="1" fold="1" page="1" pageScale="1" pageWidth="827" pageHeight="1169" math="0" shadow="0">
      <root>
        <mxCell id="0" />
        <mxCell id="1" parent="0" />
        <mxCell id="sGRojxGO8p1WaBmdN3Ls-3" value="" style="edgeStyle=orthogonalEdgeStyle;rounded=0;orthogonalLoop=1;jettySize=auto;html=1;fontSize=32;strokeWidth=6;" parent="1" source="sGRojxGO8p1WaBmdN3Ls-1" target="sGRojxGO8p1WaBmdN3Ls-2" edge="1">
          <mxGeometry relative="1" as="geometry" />
        </mxCell>
        <mxCell id="sGRojxGO8p1WaBmdN3Ls-1" value="fib2(5)" style="rounded=0;whiteSpace=wrap;html=1;fontSize=32;" parent="1" vertex="1">
          <mxGeometry width="120" height="60" as="geometry" />
        </mxCell>
        <mxCell id="sGRojxGO8p1WaBmdN3Ls-5" value="" style="edgeStyle=orthogonalEdgeStyle;rounded=0;orthogonalLoop=1;jettySize=auto;html=1;fontSize=32;strokeWidth=6;" parent="1" source="sGRojxGO8p1WaBmdN3Ls-2" target="sGRojxGO8p1WaBmdN3Ls-4" edge="1">
          <mxGeometry relative="1" as="geometry" />
        </mxCell>
        <mxCell id="sGRojxGO8p1WaBmdN3Ls-2" value="aux(5, 0, 1)" style="rounded=0;whiteSpace=wrap;html=1;fontSize=32;" parent="1" vertex="1">
          <mxGeometry x="170" width="180" height="60" as="geometry" />
        </mxCell>
        <mxCell id="sGRojxGO8p1WaBmdN3Ls-7" value="" style="edgeStyle=orthogonalEdgeStyle;rounded=0;orthogonalLoop=1;jettySize=auto;html=1;fontSize=32;strokeWidth=6;" parent="1" source="sGRojxGO8p1WaBmdN3Ls-4" target="sGRojxGO8p1WaBmdN3Ls-6" edge="1">
          <mxGeometry relative="1" as="geometry" />
        </mxCell>
        <mxCell id="sGRojxGO8p1WaBmdN3Ls-4" value="aux(4, 1, 1)" style="rounded=0;whiteSpace=wrap;html=1;fontSize=32;" parent="1" vertex="1">
          <mxGeometry x="400" width="170" height="60" as="geometry" />
        </mxCell>
        <mxCell id="sGRojxGO8p1WaBmdN3Ls-9" value="" style="edgeStyle=orthogonalEdgeStyle;rounded=0;orthogonalLoop=1;jettySize=auto;html=1;fontSize=32;strokeWidth=6;" parent="1" source="sGRojxGO8p1WaBmdN3Ls-6" target="sGRojxGO8p1WaBmdN3Ls-8" edge="1">
          <mxGeometry relative="1" as="geometry" />
        </mxCell>
        <mxCell id="sGRojxGO8p1WaBmdN3Ls-6" value="aux(3, 1, 2)" style="rounded=0;whiteSpace=wrap;html=1;fontSize=32;" parent="1" vertex="1">
          <mxGeometry x="630" width="170" height="60" as="geometry" />
        </mxCell>
        <mxCell id="sGRojxGO8p1WaBmdN3Ls-11" value="" style="edgeStyle=orthogonalEdgeStyle;rounded=0;orthogonalLoop=1;jettySize=auto;html=1;fontSize=32;strokeWidth=6;" parent="1" source="sGRojxGO8p1WaBmdN3Ls-8" target="sGRojxGO8p1WaBmdN3Ls-10" edge="1">
          <mxGeometry relative="1" as="geometry" />
        </mxCell>
        <mxCell id="sGRojxGO8p1WaBmdN3Ls-8" value="aux(2, 2, 3)" style="rounded=0;whiteSpace=wrap;html=1;fontSize=32;" parent="1" vertex="1">
          <mxGeometry x="850" width="170" height="60" as="geometry" />
        </mxCell>
        <mxCell id="sGRojxGO8p1WaBmdN3Ls-13" value="" style="edgeStyle=orthogonalEdgeStyle;rounded=0;orthogonalLoop=1;jettySize=auto;html=1;fontSize=32;strokeWidth=6;entryX=0;entryY=0.5;entryDx=0;entryDy=0;" parent="1" source="sGRojxGO8p1WaBmdN3Ls-10" target="T5fT8sMCI-ONtGerh3vA-1" edge="1">
          <mxGeometry relative="1" as="geometry" />
        </mxCell>
        <mxCell id="sGRojxGO8p1WaBmdN3Ls-10" value="aux(1, 3, 5)" style="rounded=0;whiteSpace=wrap;html=1;fontSize=32;" parent="1" vertex="1">
          <mxGeometry x="1060" width="170" height="60" as="geometry" />
        </mxCell>
        <mxCell id="sGRojxGO8p1WaBmdN3Ls-12" value="5" style="rounded=0;whiteSpace=wrap;html=1;fontSize=32;" parent="1" vertex="1">
          <mxGeometry x="1490" width="60" height="60" as="geometry" />
        </mxCell>
        <mxCell id="sGRojxGO8p1WaBmdN3Ls-17" value="" style="edgeStyle=orthogonalEdgeStyle;rounded=0;orthogonalLoop=1;jettySize=auto;html=1;fontSize=32;strokeWidth=6;" parent="1" source="sGRojxGO8p1WaBmdN3Ls-18" target="sGRojxGO8p1WaBmdN3Ls-20" edge="1">
          <mxGeometry relative="1" as="geometry" />
        </mxCell>
        <mxCell id="sGRojxGO8p1WaBmdN3Ls-18" value="fib2(4)" style="rounded=0;whiteSpace=wrap;html=1;fontSize=32;" parent="1" vertex="1">
          <mxGeometry y="80" width="120" height="60" as="geometry" />
        </mxCell>
        <mxCell id="sGRojxGO8p1WaBmdN3Ls-19" value="" style="edgeStyle=orthogonalEdgeStyle;rounded=0;orthogonalLoop=1;jettySize=auto;html=1;fontSize=32;strokeWidth=6;" parent="1" source="sGRojxGO8p1WaBmdN3Ls-20" target="sGRojxGO8p1WaBmdN3Ls-22" edge="1">
          <mxGeometry relative="1" as="geometry" />
        </mxCell>
        <mxCell id="sGRojxGO8p1WaBmdN3Ls-20" value="aux(4, 0, 1)" style="rounded=0;whiteSpace=wrap;html=1;fontSize=32;" parent="1" vertex="1">
          <mxGeometry x="170" y="80" width="180" height="60" as="geometry" />
        </mxCell>
        <mxCell id="sGRojxGO8p1WaBmdN3Ls-21" value="" style="edgeStyle=orthogonalEdgeStyle;rounded=0;orthogonalLoop=1;jettySize=auto;html=1;fontSize=32;strokeWidth=6;" parent="1" source="sGRojxGO8p1WaBmdN3Ls-22" target="sGRojxGO8p1WaBmdN3Ls-24" edge="1">
          <mxGeometry relative="1" as="geometry" />
        </mxCell>
        <mxCell id="sGRojxGO8p1WaBmdN3Ls-22" value="aux(3, 1, 1)" style="rounded=0;whiteSpace=wrap;html=1;fontSize=32;" parent="1" vertex="1">
          <mxGeometry x="400" y="80" width="170" height="60" as="geometry" />
        </mxCell>
        <mxCell id="sGRojxGO8p1WaBmdN3Ls-23" value="" style="edgeStyle=orthogonalEdgeStyle;rounded=0;orthogonalLoop=1;jettySize=auto;html=1;fontSize=32;strokeWidth=6;" parent="1" source="sGRojxGO8p1WaBmdN3Ls-24" target="sGRojxGO8p1WaBmdN3Ls-26" edge="1">
          <mxGeometry relative="1" as="geometry" />
        </mxCell>
        <mxCell id="sGRojxGO8p1WaBmdN3Ls-24" value="aux(2, 1, 2)" style="rounded=0;whiteSpace=wrap;html=1;fontSize=32;" parent="1" vertex="1">
          <mxGeometry x="630" y="80" width="170" height="60" as="geometry" />
        </mxCell>
        <mxCell id="sGRojxGO8p1WaBmdN3Ls-25" value="" style="edgeStyle=orthogonalEdgeStyle;rounded=0;orthogonalLoop=1;jettySize=auto;html=1;fontSize=32;strokeWidth=6;" parent="1" source="T5fT8sMCI-ONtGerh3vA-3" target="sGRojxGO8p1WaBmdN3Ls-28" edge="1">
          <mxGeometry relative="1" as="geometry" />
        </mxCell>
        <mxCell id="sGRojxGO8p1WaBmdN3Ls-26" value="aux(1, 2, 3)" style="rounded=0;whiteSpace=wrap;html=1;fontSize=32;" parent="1" vertex="1">
          <mxGeometry x="850" y="80" width="170" height="60" as="geometry" />
        </mxCell>
        <mxCell id="sGRojxGO8p1WaBmdN3Ls-28" value="3" style="rounded=0;whiteSpace=wrap;html=1;fontSize=32;" parent="1" vertex="1">
          <mxGeometry x="1270" y="80" width="50" height="60" as="geometry" />
        </mxCell>
        <mxCell id="T5fT8sMCI-ONtGerh3vA-2" style="edgeStyle=orthogonalEdgeStyle;rounded=0;orthogonalLoop=1;jettySize=auto;html=1;entryX=0;entryY=0.5;entryDx=0;entryDy=0;strokeWidth=3;" edge="1" parent="1" source="T5fT8sMCI-ONtGerh3vA-1" target="sGRojxGO8p1WaBmdN3Ls-12">
          <mxGeometry relative="1" as="geometry" />
        </mxCell>
        <mxCell id="T5fT8sMCI-ONtGerh3vA-1" value="aux(0, 5, 8)" style="rounded=0;whiteSpace=wrap;html=1;fontSize=32;" vertex="1" parent="1">
          <mxGeometry x="1270" width="170" height="60" as="geometry" />
        </mxCell>
        <mxCell id="T5fT8sMCI-ONtGerh3vA-4" value="" style="edgeStyle=orthogonalEdgeStyle;rounded=0;orthogonalLoop=1;jettySize=auto;html=1;fontSize=32;strokeWidth=6;" edge="1" parent="1" source="sGRojxGO8p1WaBmdN3Ls-26" target="T5fT8sMCI-ONtGerh3vA-3">
          <mxGeometry relative="1" as="geometry">
            <mxPoint x="1020" y="110" as="sourcePoint" />
            <mxPoint x="1270" y="110" as="targetPoint" />
          </mxGeometry>
        </mxCell>
        <mxCell id="T5fT8sMCI-ONtGerh3vA-3" value="aux(0, 3, 5)" style="rounded=0;whiteSpace=wrap;html=1;fontSize=32;" vertex="1" parent="1">
          <mxGeometry x="1060" y="80" width="170" height="60" as="geometry" />
        </mxCell>
      </root>
    </mxGraphModel>
  </diagram>
</mxfile>
